<?xml version="1.0" encoding="UTF-8" standalone="no"?>
<!-- Created with Inkscape (http://www.inkscape.org/) -->

<svg
   version="1.1"
   id="svg1"
   width="633.33331"
   height="633.33331"
   viewBox="0 0 633.33331 633.33331"
   xmlns="http://www.w3.org/2000/svg"
   xmlns:svg="http://www.w3.org/2000/svg">
  <defs
     id="defs1" />
  <g
     id="g1">
    <path
       style="fill:#000000"
       d="M 291.33332,629.26304 C 170.12968,619.71546 65.3365,540.84922 23.000938,427.31892 14.0398,403.28804 8.1752165,378.57497 4.8899298,350.99999 c -1.6855267,-14.14743 -1.6810966,-51.69202 0.00779,-66 C 12.143412,223.61555 34.445034,169.6622 71.956303,122.76806 81.57843,110.73911 100.10134,91.568572 111.57816,81.760885 143.08239,54.838483 178.61306,34.759036 217.46508,21.92101 274.71133,3.0049056 336.14062,1.0763272 394.5349,16.361886 c 43.74732,11.451501 85.32632,32.821783 120.46508,61.915205 10.25911,8.49411 28.53835,26.483349 37.22745,36.636839 41.17513,48.11441 65.87332,105.23428 73.54391,170.08606 1.68291,14.22834 1.68199,51.7852 -0.002,66 -8.64993,73.0319 -39.18875,137.00871 -89.43338,187.35699 -53.11205,53.22162 -122.84364,85.20675 -198.30295,90.95943 -10.31479,0.78635 -36.41876,0.75652 -46.70007,-0.0534 z M 392.99999,509.96653 c 9.76426,-0.72677 28.39046,-3.33223 35.33426,-4.94261 5.30712,-1.2308 16.2861,-4.74011 21.3324,-6.81865 26.98217,-11.11384 41.32369,-26.76581 51.80496,-56.53862 7.80529,-22.17151 19.06188,-56.73599 21.91253,-67.28463 2.00465,-7.41808 1.64424,-16.42054 -0.8761,-21.88379 -2.16336,-4.68942 -7.38089,-10.33952 -11.73763,-12.71075 -7.55263,-4.11066 -7.68521,-4.12082 -53.77042,-4.12082 -31.21592,0 -43.27067,0.22012 -46.94877,0.85729 -13.55153,2.34756 -26.11718,10.98349 -31.80888,21.86111 -3.37664,6.45322 -9.15112,24.10258 -9.17444,28.04115 -0.0236,3.98374 0.83099,5.2842 4.59875,6.99812 2.48293,1.12946 5.4342,1.21405 42.83334,1.22768 38.94856,0.0142 40.16666,0.0529 40.16666,1.2756 0,2.05321 -7.73502,24.38309 -10.25234,29.59704 -6.72503,13.92904 -18.89588,21.31714 -42.08099,25.5445 -5.44635,0.99304 -10.02252,1.20877 -25,1.17853 -18.61201,-0.0376 -22.99318,-0.44533 -31,-2.88519 -7.82356,-2.38402 -11.7622,-4.70435 -17.12381,-10.08797 l -5.12382,-5.14485 -6.20952,6.10404 c -12.30057,12.09165 -31.08237,24.23736 -45.54285,29.45141 -1.83333,0.66105 -3.59846,1.43246 -3.92251,1.71424 -0.88354,0.76828 3.5351,6.40179 9.4646,12.0668 16.08543,15.36792 39.63213,24.46858 68.45791,26.45857 11.79694,0.81441 34.00741,0.83519 44.66667,0.0418 z M 231.33333,442.05719 c 9.36971,-1.4717 19.94778,-3.83173 25.66666,-5.72638 31.81907,-10.54154 55.71738,-30.4905 69.56351,-58.06766 5.62373,-11.20071 6.67918,-13.8869 14.90325,-37.92983 4.38974,-12.83333 8.21928,-24.08333 8.51008,-25 2.27897,-7.18365 7.09578,-15.03777 12.64999,-20.62658 10.08237,-10.14519 21.81917,-14.44804 43.7065,-16.02331 5.13333,-0.36945 27.12411,-0.67437 48.8684,-0.67759 44.7633,-0.007 44.72379,-0.003 55.15582,-5.06289 9.87629,-4.79034 16.79142,-11.33633 21.19312,-20.06181 0.89187,-1.76796 3.21635,-8.11046 5.1655,-14.09444 3.46507,-10.6379 3.52248,-10.94147 2.58054,-13.64493 -0.61376,-1.76153 -1.78548,-3.31724 -3.22864,-4.28671 l -2.26525,-1.52173 h -61.13794 c -71.00686,0 -80.89092,0.50804 -98.57361,5.06673 -33.14553,8.54509 -54.5534,24.79236 -69.02525,52.38597 -4.94519,9.42904 -6.67503,13.94847 -15.51977,40.54729 -4.20643,12.65 -8.80251,25.46824 -10.21353,28.48497 -7.50167,16.03851 -20.30834,27.94789 -36.08266,33.55456 -10.40179,3.6971 -26.19976,5.95425 -41.70647,5.95885 -12.51109,0.004 -23.96018,4.56409 -32.89914,13.10432 -6.53907,6.2474 -9.42436,11.60321 -13.58893,25.22442 -3.30066,10.79559 -3.56453,12.75476 -2.09947,15.58787 1.24934,2.41597 2.56976,3.46485 5.21473,4.14236 1.18941,0.30467 16.11256,0.44734 33.16256,0.31705 27.56884,-0.21067 31.99614,-0.39335 40,-1.65053 z m -45,-92.72387 c 4.20075,-0.86434 9.09238,-1.33408 13.90672,-1.33546 18.94515,-0.005 32.93642,-6.07633 42.11326,-18.27319 5.4308,-7.21803 6.47366,-9.86334 16.97481,-43.05801 11.33538,-35.83173 20.46467,-62.96225 23.0677,-68.55283 6.12884,-13.163 16.0542,-24.01197 27.5156,-30.07605 3.6959,-1.95546 12.79005,-4.79807 19.35487,-6.04987 10.38699,-1.98062 20.10687,-2.48582 49.06703,-2.55033 29.40833,-0.0655 31.54674,-0.33986 41.9696,-5.38482 6.79522,-3.28908 11.45261,-6.99105 15.39742,-12.2388 4.22423,-5.61948 5.75003,-8.82124 9.63435,-20.21688 4.62753,-13.57604 4.37642,-17.89813 -1.17341,-20.19694 -1.42341,-0.5896 -34.30548,-0.72709 -134.52259,-0.5625 -122.74296,0.20158 -133.16094,0.30512 -139.6387,1.38771 -8.06538,1.34793 -17.71055,3.84196 -23.97088,6.19834 -14.34854,5.40078 -27.04196,18.23678 -35.36649,35.76376 -4.48827,9.44987 -17.995956,50.92446 -17.995956,55.25556 0,3.01234 1.967059,5.55602 5.0948,6.58827 3.609326,1.19119 25.291476,0.4547 30.905196,-1.04978 6.14666,-1.64729 12.33352,-4.94403 17.15435,-9.14088 5.60825,-4.88235 8.33489,-8.6185 11.92066,-16.33416 5.03881,-10.84225 5.58155,-11.85708 7.745,-14.48172 4.18261,-5.07423 3.54972,-4.99364 39.34666,-5.0101 17.50833,-0.008 31.83333,0.24337 31.83333,0.55872 0,0.31535 -1.92943,4.59035 -4.28763,9.5 -4.14169,8.6228 -14.31832,37.73613 -22.92827,65.5933 -1.81324,5.86666 -6.81522,21.61666 -11.11552,35 -9.60346,29.88781 -19.00191,59.44758 -19.00191,59.76431 0,0.3447 -0.0418,0.35125 7,-1.09765 z"
       id="path1" />
  </g>
</svg>
