<?xml version="1.0" encoding="UTF-8" standalone="no"?>
<!-- Created with Inkscape (http://www.inkscape.org/) -->

<svg
   xmlns:dc="http://purl.org/dc/elements/1.1/"
   xmlns:cc="http://creativecommons.org/ns#"
   xmlns:rdf="http://www.w3.org/1999/02/22-rdf-syntax-ns#"
   xmlns:svg="http://www.w3.org/2000/svg"
   xmlns="http://www.w3.org/2000/svg"
   xmlns:inkscape="http://www.inkscape.org/namespaces/inkscape"
   version="1.2"
   width="800"
   height="800"
   id="svg2">
  <defs
     id="defs4">
    <inkscape:path-effect
       effect="spiro"
       id="path-effect3004" />
    <inkscape:path-effect
       effect="spiro"
       id="path-effect3004-9" />
    <inkscape:path-effect
       effect="spiro"
       id="path-effect3004-3" />
    <inkscape:path-effect
       effect="spiro"
       id="path-effect3004-1-2" />
    <inkscape:path-effect
       effect="spiro"
       id="path-effect3004-1" />
    <inkscape:path-effect
       effect="spiro"
       id="path-effect3004-2" />
    <inkscape:path-effect
       effect="spiro"
       id="path-effect3004-23" />
    <inkscape:path-effect
       effect="spiro"
       id="path-effect3004-12" />
    <inkscape:path-effect
       effect="spiro"
       id="path-effect3004-6" />
    <inkscape:path-effect
       effect="spiro"
       id="path-effect3004-2-3" />
    <inkscape:path-effect
       effect="spiro"
       id="path-effect3004-1-6" />
    <inkscape:path-effect
       effect="spiro"
       id="path-effect3004-5" />
    <inkscape:path-effect
       effect="spiro"
       id="path-effect3004-4" />
    <inkscape:path-effect
       effect="spiro"
       id="path-effect3004-49" />
    <inkscape:path-effect
       effect="spiro"
       id="path-effect3004-15" />
    <inkscape:path-effect
       effect="spiro"
       id="path-effect3004-7" />
    <inkscape:path-effect
       effect="spiro"
       id="path-effect3004-46" />
    <inkscape:path-effect
       effect="spiro"
       id="path-effect3004-77" />
    <inkscape:path-effect
       effect="spiro"
       id="path-effect3004-125" />
    <inkscape:path-effect
       effect="spiro"
       id="path-effect3004-20" />
    <inkscape:path-effect
       effect="spiro"
       id="path-effect3004-61" />
    <inkscape:path-effect
       effect="spiro"
       id="path-effect3004-8" />
    <inkscape:path-effect
       effect="spiro"
       id="path-effect3004-1-1" />
    <inkscape:path-effect
       effect="spiro"
       id="path-effect3004-37" />
    <inkscape:path-effect
       effect="spiro"
       id="path-effect3004-51" />
    <inkscape:path-effect
       effect="spiro"
       id="path-effect3004-83" />
    <inkscape:path-effect
       effect="spiro"
       id="path-effect3004-92" />
    <inkscape:path-effect
       effect="spiro"
       id="path-effect3004-7-8" />
    <inkscape:path-effect
       effect="spiro"
       id="path-effect3004-3-8" />
    <inkscape:path-effect
       effect="spiro"
       id="path-effect3004-0" />
    <inkscape:path-effect
       effect="spiro"
       id="path-effect3004-77-8" />
    <inkscape:path-effect
       effect="spiro"
       id="path-effect3004-46-5" />
    <inkscape:path-effect
       effect="spiro"
       id="path-effect3004-7-2" />
    <inkscape:path-effect
       effect="spiro"
       id="path-effect3004-15-4" />
    <inkscape:path-effect
       effect="spiro"
       id="path-effect3004-49-2" />
    <inkscape:path-effect
       effect="spiro"
       id="path-effect3004-4-1" />
    <inkscape:path-effect
       effect="spiro"
       id="path-effect3004-5-6" />
    <inkscape:path-effect
       effect="spiro"
       id="path-effect3004-1-6-8" />
    <inkscape:path-effect
       effect="spiro"
       id="path-effect3004-2-3-5" />
    <inkscape:path-effect
       effect="spiro"
       id="path-effect3004-6-1" />
    <inkscape:path-effect
       effect="spiro"
       id="path-effect3004-12-8" />
    <inkscape:path-effect
       effect="spiro"
       id="path-effect3004-23-7" />
    <inkscape:path-effect
       effect="spiro"
       id="path-effect3004-2-0" />
    <inkscape:path-effect
       effect="spiro"
       id="path-effect3004-1-9" />
    <inkscape:path-effect
       effect="spiro"
       id="path-effect3004-1-2-8" />
    <inkscape:path-effect
       effect="spiro"
       id="path-effect3004-3-2" />
    <inkscape:path-effect
       effect="spiro"
       id="path-effect3004-9-8" />
    <inkscape:path-effect
       effect="spiro"
       id="path-effect3004-22" />
    <inkscape:path-effect
       effect="spiro"
       id="path-effect3004-618" />
    <inkscape:path-effect
       effect="spiro"
       id="path-effect3004-53" />
    <inkscape:path-effect
       effect="spiro"
       id="path-effect3004-7-5" />
    <inkscape:path-effect
       effect="spiro"
       id="path-effect3004-3-25" />
    <inkscape:path-effect
       effect="spiro"
       id="path-effect3004-98" />
    <inkscape:path-effect
       effect="spiro"
       id="path-effect3004-770" />
    <inkscape:path-effect
       effect="spiro"
       id="path-effect3004-39" />
    <inkscape:path-effect
       effect="spiro"
       id="path-effect3004-24" />
    <inkscape:path-effect
       effect="spiro"
       id="path-effect3004-82" />
    <inkscape:path-effect
       effect="spiro"
       id="path-effect3004-8-6" />
    <inkscape:path-effect
       effect="spiro"
       id="path-effect3004-27" />
    <inkscape:path-effect
       effect="spiro"
       id="path-effect3004-1-5" />
    <inkscape:path-effect
       effect="spiro"
       id="path-effect3004-8-68" />
    <inkscape:path-effect
       effect="spiro"
       id="path-effect3004-221" />
    <inkscape:path-effect
       effect="spiro"
       id="path-effect3004-927" />
    <inkscape:path-effect
       effect="spiro"
       id="path-effect3004-123" />
    <inkscape:path-effect
       effect="spiro"
       id="path-effect3004-38" />
    <inkscape:path-effect
       effect="spiro"
       id="path-effect3004-79" />
    <inkscape:path-effect
       effect="spiro"
       id="path-effect3004-65" />
    <inkscape:path-effect
       effect="spiro"
       id="path-effect3004-02" />
    <inkscape:path-effect
       effect="spiro"
       id="path-effect3004-09" />
  </defs>
  <metadata
     id="metadata7">
    <rdf:RDF>
      <cc:Work
         rdf:about="">
        <dc:format>image/svg+xml</dc:format>
        <dc:type
           rdf:resource="http://purl.org/dc/dcmitype/StillImage" />
        <dc:title></dc:title>
      </cc:Work>
    </rdf:RDF>
  </metadata>
  <g
     transform="translate(0,-252.3597)"
     id="layer1">
    <path
       d="m 668.28771,817.36252 c -17.70643,4.28726 -30.86373,3.48385 -47.2944,-2.88785 -3.08189,-1.19513 -10.76548,-5.16409 -12.82781,-6.62621 -1.05694,-0.74934 -1.54064,-0.92496 -2.2693,-0.824 -1.92902,0.26736 -6.26732,0.18986 -9.00899,-0.16092 -16.22007,-2.07521 -31.09266,-14.12886 -38.66969,-31.34023 -2.27865,-5.17601 -4.71234,-14.28899 -5.35114,-20.03737 -0.58305,-5.24687 -0.1542,-10.89339 1.17476,-15.46782 l 0.61831,-2.12829 -4.17768,-4.63334 c -6.98207,-7.74358 -9.31147,-10.60697 -12.54129,-15.41622 -3.45331,-5.14203 -6.35264,-11.19733 -7.51921,-15.70404 -2.13471,-8.24672 -2.06839,-15.67129 0.21273,-23.81775 1.5217,-5.43442 3.21617,-9.31075 7.22881,-16.537 4.01583,-7.23199 5.95801,-15.98046 5.99372,-26.99851 0.0336,-10.35255 -2.12103,-20.39476 -6.27279,-29.23651 -1.87086,-3.98426 -4.25246,-8.48301 -10.22201,-19.30906 -8.24992,-14.96157 -11.49326,-21.68189 -14.21994,-29.46425 -3.64283,-10.3972 -3.99056,-15.9019 -1.35769,-21.49329 1.86302,-3.95648 4.18645,-6.82395 7.57277,-9.34599 1.33284,-0.99267 1.94861,-1.26691 5.15752,-2.29699 4.02546,-1.29245 5.67406,-1.46849 9.97246,-1.06638 13.23031,1.23769 31.61122,12.46996 44.97265,27.48201 5.83742,6.55855 9.47975,11.91369 13.16236,19.35197 1.8657,3.76839 5.27898,14.36633 5.92351,18.39326 1.33753,8.35143 1.37525,14.93574 0.13222,23.07687 -0.90246,5.91054 -2.02397,10.27898 -3.96236,15.43385 -0.58845,1.56488 -1.00179,2.8802 -0.91856,2.92293 0.0833,0.0427 2.03187,-0.77374 4.33028,-1.81438 25.44876,-11.5222 53.91295,-14.91789 80.15354,-9.56205 6.99055,1.42681 15.15999,4.24821 20.85722,7.20328 8.68245,4.50348 15.05838,10.02699 19.27058,16.69425 1.04274,1.6505 1.42247,2.56839 2.70304,6.53334 1.42573,4.41377 1.48795,4.70689 1.44693,6.78528 -0.10731,5.43068 -2.40132,11.90679 -6.84584,19.32631 -2.04729,3.41768 -5.53768,8.5706 -7.90524,11.67066 -0.7261,0.95073 -1.35188,1.77185 -1.39065,1.82473 -0.0388,0.0529 1.22206,0.74036 2.80183,1.52778 6.51235,3.24599 11.61209,8.16059 14.46899,13.9438 1.51808,3.07299 2.94927,8.44258 3.10706,11.657 0.37157,7.5689 -1.95882,14.59813 -7.76855,23.43276 -1.2959,1.97061 -5.34116,7.02868 -7.21584,9.02245 -0.74141,0.78849 -1.32249,1.51305 -1.29128,1.61009 0.0312,0.097 0.70292,1.04651 1.49269,2.10997 4.64227,6.25105 7.04251,13.08142 6.97565,19.85079 -0.0677,6.8504 -2.54699,14.22038 -6.68423,19.86927 -5.90817,8.06694 -17.31349,16.31881 -29.88763,21.62403 -4.11013,1.73414 -10.78693,4.01294 -14.1279,4.8219 z m 18.9699,-11.43357 c 16.72627,-8.42841 24.14516,-18.40604 23.5284,-31.64318 -0.10924,-2.34434 -0.25038,-2.98206 -1.59162,-7.19135 -1.37629,-4.31947 -1.57246,-4.7776 -3.02612,-7.06711 -1.71617,-2.70308 -2.76675,-4.06843 -3.05831,-3.97466 -0.1051,0.0338 -0.87915,0.65703 -1.72015,1.38497 -4.64066,4.01689 -12.63938,9.7763 -18.73288,13.48849 -14.30164,8.71258 -28.79691,14.58667 -38.49104,15.59816 -8.57229,0.89442 -19.35532,-0.52091 -27.70145,-3.63596 -2.53953,-0.94784 -8.02316,-3.76056 -9.92455,-5.09061 l -1.35526,-0.94803 -1.01646,1.6738 c -2.02432,3.33338 -3.03364,7.61421 -2.66073,11.2851 1.06141,10.44836 14.09136,20.10162 32.21452,23.86617 9.22433,1.91609 19.39157,1.8352 30.4877,-0.24252 4.60898,-0.863 4.97601,-0.96519 12.7912,-3.56138 5.83879,-1.93968 7.71173,-2.65943 10.25675,-3.94189 z M 598.662,798.84582 c -1.39284,-1.92041 -1.65315,-2.44756 -2.55146,-5.16701 -0.82929,-2.51042 -1.00118,-3.34903 -1.00496,-4.903 -0.0102,-4.16128 1.42869,-8.31171 4.2525,-12.26637 0.79577,-1.11444 1.57051,-2.15915 1.72165,-2.32157 0.21644,-0.23259 -0.17444,-0.74756 -1.84054,-2.42456 -5.77207,-5.80998 -9.73056,-12.80729 -11.44536,-20.23159 -1.00725,-4.36088 -0.92761,-9.00303 0.20943,-12.209 l 0.48399,-1.36464 -2.16173,-1.303 c -8.04957,-4.85197 -16.14168,-12.15357 -21.29805,-19.21743 -6.20771,-8.50414 -8.81639,-16.60278 -7.7298,-23.99724 1.02849,-6.99919 5.6884,-12.78284 13.87417,-17.21995 2.44547,-1.32557 9.57654,-3.52975 12.31077,-3.80521 8.8501,-0.89158 19.87507,1.29422 29.3901,5.82686 l 2.90188,1.38236 2.36494,-2.92281 c 5.22807,-6.46129 13.19707,-13.41086 21.90325,-19.10128 3.56639,-2.33103 8.86871,-5.3931 10.89147,-6.2898 1.22748,-0.54415 1.32897,-0.54532 2.08972,-0.0241 l 0.79959,0.54782 -0.87884,0.28262 c -3.11878,1.00298 -10.66959,6.36546 -17.24943,12.2503 -10.97856,9.81896 -17.9147,19.52815 -17.8674,25.01075 l 0.009,1.09816 -1.72863,0.55592 c -0.95076,0.30575 -2.2636,0.65043 -2.91743,0.76601 -1.1724,0.2072 -1.19,0.19901 -1.27625,-0.59461 -0.14273,-1.31313 0.2125,-3.73639 0.79079,-5.39464 l 0.54067,-1.55035 -2.12866,-1.05865 c -8.43828,-4.1966 -19.15682,-6.40802 -27.06539,-5.58405 -5.8133,0.60566 -11.70009,3.21166 -15.57482,6.89477 -3.86406,3.67295 -5.50914,7.94745 -5.19226,13.49131 1.03493,18.10602 26.18161,40.4125 50.27052,44.59269 5.44021,0.94405 9.87942,0.78474 15.68513,-0.56291 10.35778,-2.40432 24.61313,-10.3223 37.92902,-21.06726 25.648,-20.69609 44.13153,-45.53126 46.22966,-62.11594 0.88368,-6.98505 -1.57507,-13.40401 -7.50922,-19.60422 -11.54751,-12.06525 -30.95479,-18.02174 -56.65657,-17.38909 -17.41286,0.42861 -37.98004,5.36415 -54.60721,13.10416 -4.6351,2.15766 -4.39796,1.96227 -6.04193,4.97846 -2.34831,4.30844 -7.11643,11.8485 -7.58871,12.00038 -0.27145,0.0873 -2.11197,-0.88235 -2.00717,-1.05743 0.0409,-0.0684 0.76413,-1.16758 1.60704,-2.44257 10.79094,-16.32223 15.90696,-33.4114 14.85786,-49.63002 -0.4558,-7.04648 -1.66033,-12.64006 -4.26995,-19.82883 -6.86828,-18.92018 -23.06319,-35.57729 -41.38938,-42.57063 -7.40678,-2.82645 -15.40409,-3.75548 -19.89524,-2.31116 -2.70088,0.86857 -5.13911,3.25392 -6.29609,6.15953 -2.24034,5.62629 -1.42675,13.02762 2.76216,25.12805 3.3006,9.53439 7.09281,17.62668 14.24353,30.39469 3.9981,7.13881 4.96274,9.36466 6.98308,16.11298 1.92723,6.43733 2.57569,9.87818 2.88115,15.28805 0.40673,7.20358 -0.0412,12.94024 -1.53463,19.65622 -1.40741,6.32897 -2.80919,10.03331 -6.92824,18.30865 -5.12431,10.29497 -7.11614,16.56983 -7.52146,23.69494 -0.33288,5.85152 0.42715,10.58608 2.7048,16.84948 1.97907,5.44232 4.31522,9.83202 8.5863,16.13395 2.56317,3.78192 9.44961,12.87518 10.00652,13.21318 0.0492,0.0299 0.33848,-0.43031 0.64277,-1.02263 1.12225,-2.18464 4.4738,-7.00416 4.98509,-7.16859 0.17083,-0.0549 1.43403,1.16049 1.34984,1.29879 -0.0312,0.0513 -0.35561,0.38988 -0.72085,0.75242 -1.04689,1.0391 -2.97757,4.76776 -3.57513,6.90454 -2.22323,7.94987 -1.28381,17.75026 2.96869,30.97046 2.04328,6.35201 3.26929,9.12555 5.86066,13.25782 2.84878,4.54272 6.87068,8.93736 11.27552,12.32049 3.24067,2.48899 10.11686,5.95803 14.17356,7.15055 3.11684,0.91626 7.29485,1.81793 7.40743,1.59859 0.0326,-0.0634 -0.63882,-1.07763 -1.49191,-2.25383 z m 63.91294,-22.53507 c 9.74886,-3.95987 19.65225,-9.5185 28.39157,-15.93583 17.221,-12.64547 27.27755,-26.48185 28.13097,-38.70414 0.19484,-2.79029 0.0738,-4.569 -0.51087,-7.50938 -0.83291,-4.18855 -3.33704,-8.67955 -6.81305,-12.21877 -2.68116,-2.72992 -6.75351,-5.75409 -9.54841,-7.09071 l -0.97652,-0.46703 -1.02309,1.21379 c -0.5627,0.66758 -2.52122,2.93071 -4.35225,5.0292 -20.14034,23.08198 -46.93205,41.60917 -66.2305,45.80018 -10.53892,2.2887 -20.58878,0.98857 -32.90363,-4.25671 -1.49261,-0.63574 -2.76813,-1.13845 -2.8345,-1.11711 -0.0664,0.0213 -0.23271,0.76832 -0.36969,1.65996 -1.23834,8.06075 2.26519,18.01764 8.7048,24.73862 9.47299,9.8869 23.92324,14.97338 39.81478,14.01475 6.01581,-0.36287 13.10255,-2.14382 20.52039,-5.15682 z"
       id="path3462"
       style="fill:#040404" />
    <path
       d="m 139.48794,821.24598 c 17.70643,4.28726 30.86373,3.48385 47.2944,-2.88785 3.08189,-1.19513 10.76548,-5.16409 12.82781,-6.62621 1.05694,-0.74934 1.54064,-0.92496 2.2693,-0.824 1.92902,0.26736 6.26732,0.18986 9.00899,-0.16092 16.22007,-2.07521 31.09266,-14.12886 38.66969,-31.34023 2.27865,-5.17601 4.71234,-14.28899 5.35114,-20.03737 0.58305,-5.24687 0.1542,-10.89339 -1.17476,-15.46782 l -0.61831,-2.12829 4.17768,-4.63334 c 6.98207,-7.74358 9.31147,-10.60697 12.54129,-15.41622 3.45331,-5.14203 6.35263,-11.19733 7.5192,-15.70404 2.13471,-8.24672 2.06839,-15.67129 -0.21273,-23.81775 -1.5217,-5.43442 -3.21617,-9.31075 -7.2288,-16.537 -4.01583,-7.23199 -5.95801,-15.98046 -5.99372,-26.99851 -0.0336,-10.35255 2.12103,-20.39476 6.27279,-29.23651 1.87086,-3.98426 4.25245,-8.48301 10.222,-19.30906 8.24992,-14.96157 11.49326,-21.68189 14.21994,-29.46425 3.64283,-10.3972 3.99056,-15.9019 1.35769,-21.49329 -1.86302,-3.95648 -4.18645,-6.82395 -7.57277,-9.34599 -1.33284,-0.99267 -1.94861,-1.26691 -5.15752,-2.29699 -4.02546,-1.29245 -5.67406,-1.46849 -9.97245,-1.06638 -13.23031,1.23769 -31.61122,12.46996 -44.97265,27.48201 -5.83742,6.55855 -9.47975,11.91369 -13.16236,19.35197 -1.8657,3.76839 -5.27898,14.36633 -5.92351,18.39326 -1.33753,8.35143 -1.37525,14.93574 -0.13222,23.07687 0.90246,5.91054 2.02397,10.27898 3.96236,15.43385 0.58845,1.56488 1.00179,2.8802 0.91856,2.92293 -0.0833,0.0427 -2.03187,-0.77374 -4.33028,-1.81438 -25.44876,-11.5222 -53.91295,-14.91789 -80.15354,-9.56205 -6.99055,1.42681 -15.15999,4.24821 -20.85722,7.20328 -8.68245,4.50348 -15.05838,10.02699 -19.27058,16.69425 -1.04274,1.6505 -1.42247,2.56839 -2.70304,6.53334 -1.42573,4.41377 -1.48795,4.70689 -1.44693,6.78528 0.10731,5.43068 2.40132,11.90679 6.84584,19.32631 2.04729,3.41768 5.53768,8.5706 7.90524,11.67066 0.7261,0.95073 1.35188,1.77185 1.39065,1.82473 0.0388,0.0529 -1.22206,0.74036 -2.80183,1.52778 -6.51235,3.24599 -11.61209,8.16059 -14.46899,13.9438 -1.51808,3.07299 -2.94927,8.44258 -3.10706,11.657 -0.37157,7.5689 1.95882,14.59813 7.76855,23.43276 1.2959,1.97061 5.34116,7.02868 7.21584,9.02245 0.74141,0.78849 1.32249,1.51305 1.29128,1.61009 -0.0312,0.097 -0.70292,1.04651 -1.49269,2.10997 -4.64227,6.25105 -7.04251,13.08142 -6.97565,19.85079 0.0677,6.8504 2.54699,14.22038 6.68423,19.86927 5.90817,8.06694 17.31349,16.31881 29.88763,21.62403 4.11013,1.73414 10.78693,4.01294 14.1279,4.8219 z m -18.9699,-11.43357 c -16.72627,-8.42841 -24.14516,-18.40604 -23.5284,-31.64318 0.10924,-2.34434 0.25038,-2.98206 1.59162,-7.19135 1.37629,-4.31947 1.57246,-4.7776 3.02612,-7.06711 1.71617,-2.70308 2.76675,-4.06843 3.05831,-3.97466 0.1051,0.0338 0.87915,0.65703 1.72015,1.38497 4.64066,4.01689 12.63938,9.7763 18.73288,13.48849 14.30164,8.71258 28.79691,14.58667 38.49104,15.59816 8.57229,0.89442 19.35532,-0.52091 27.70145,-3.63596 2.53953,-0.94784 8.02316,-3.76056 9.92455,-5.09061 l 1.35526,-0.94803 1.01646,1.6738 c 2.02432,3.33338 3.03364,7.61421 2.66073,11.2851 -1.06141,10.44836 -14.09136,20.10162 -32.21452,23.86617 -9.22433,1.91609 -19.39157,1.8352 -30.4877,-0.24252 -4.60898,-0.863 -4.97601,-0.96519 -12.7912,-3.56138 -5.83879,-1.93968 -7.71173,-2.65943 -10.25675,-3.94189 z m 88.59561,-7.08313 c 1.39284,-1.92041 1.65315,-2.44756 2.55146,-5.16701 0.82929,-2.51042 1.00118,-3.34903 1.00496,-4.903 0.0102,-4.16128 -1.42869,-8.31171 -4.2525,-12.26637 -0.79577,-1.11444 -1.57051,-2.15915 -1.72165,-2.32157 -0.21644,-0.23259 0.17444,-0.74756 1.84054,-2.42456 5.77207,-5.80998 9.73056,-12.80729 11.44536,-20.23159 1.00725,-4.36088 0.92761,-9.00303 -0.20943,-12.209 l -0.48399,-1.36464 2.16173,-1.303 c 8.04957,-4.85197 16.14168,-12.15357 21.29805,-19.21743 6.20771,-8.50414 8.81639,-16.60278 7.7298,-23.99724 -1.02849,-6.99919 -5.6884,-12.78284 -13.87417,-17.21995 -2.44547,-1.32557 -9.57654,-3.52975 -12.31077,-3.80521 -8.8501,-0.89158 -19.87507,1.29422 -29.3901,5.82686 l -2.90188,1.38236 -2.36494,-2.92281 c -5.22807,-6.46129 -13.19707,-13.41086 -21.90325,-19.10128 -3.56639,-2.33103 -8.86871,-5.3931 -10.89147,-6.2898 -1.22748,-0.54415 -1.32897,-0.54532 -2.08972,-0.0241 l -0.79959,0.54782 0.87884,0.28262 c 3.11878,1.00298 10.66959,6.36546 17.24943,12.2503 10.97856,9.81896 17.9147,19.52815 17.8674,25.01075 l -0.009,1.09816 1.72863,0.55592 c 0.95076,0.30575 2.2636,0.65043 2.91743,0.76601 1.1724,0.2072 1.19,0.19901 1.27625,-0.59461 0.14273,-1.31313 -0.2125,-3.73639 -0.79079,-5.39464 l -0.54067,-1.55035 2.12866,-1.05865 c 8.43828,-4.1966 19.15682,-6.40802 27.06539,-5.58405 5.8133,0.60566 11.70009,3.21166 15.57482,6.89477 3.86406,3.67295 5.50914,7.94745 5.19226,13.49131 -1.03493,18.10602 -26.18161,40.4125 -50.27052,44.59269 -5.44021,0.94405 -9.87942,0.78474 -15.68513,-0.56291 -10.35778,-2.40432 -24.61313,-10.3223 -37.92902,-21.06726 -25.648,-20.69609 -44.13153,-45.53126 -46.22966,-62.11594 -0.88368,-6.98505 1.57507,-13.40401 7.50922,-19.60422 11.54751,-12.06525 30.95479,-18.02174 56.65657,-17.38909 17.41286,0.42861 37.98004,5.36415 54.60721,13.10416 4.6351,2.15766 4.39796,1.96227 6.04193,4.97846 2.34831,4.30844 7.11643,11.8485 7.58871,12.00038 0.27145,0.0873 2.11197,-0.88235 2.00717,-1.05743 -0.0409,-0.0684 -0.76413,-1.16758 -1.60704,-2.44257 -10.79094,-16.32223 -15.90696,-33.4114 -14.85786,-49.63002 0.4558,-7.04648 1.66033,-12.64006 4.26995,-19.82883 6.86828,-18.92018 23.06319,-35.57729 41.38938,-42.57063 7.40678,-2.82645 15.40409,-3.75548 19.89523,-2.31116 2.70088,0.86857 5.13911,3.25392 6.29609,6.15953 2.24034,5.62629 1.42675,13.02762 -2.76216,25.12805 -3.3006,9.53439 -7.09281,17.62668 -14.24352,30.39469 -3.9981,7.13881 -4.96274,9.36466 -6.98308,16.11298 -1.92723,6.43733 -2.57569,9.87818 -2.88115,15.28805 -0.40673,7.20358 0.0412,12.94024 1.53463,19.65622 1.40741,6.32897 2.80919,10.03331 6.92824,18.30865 5.12431,10.29497 7.11614,16.56983 7.52146,23.69494 0.33288,5.85152 -0.42715,10.58608 -2.7048,16.84948 -1.97907,5.44232 -4.31522,9.83202 -8.5863,16.13395 -2.56317,3.78192 -9.44961,12.87518 -10.00652,13.21318 -0.0492,0.0299 -0.33848,-0.43031 -0.64277,-1.02263 -1.12225,-2.18464 -4.4738,-7.00416 -4.98509,-7.16859 -0.17083,-0.0549 -1.43403,1.16049 -1.34984,1.29879 0.0312,0.0513 0.35561,0.38988 0.72085,0.75242 1.04689,1.0391 2.97757,4.76776 3.57513,6.90454 2.22323,7.94987 1.28381,17.75026 -2.96869,30.97046 -2.04328,6.35201 -3.26929,9.12555 -5.86066,13.25782 -2.84878,4.54272 -6.87068,8.93736 -11.27552,12.32049 -3.24067,2.48899 -10.11686,5.95803 -14.17356,7.15055 -3.11684,0.91626 -7.29485,1.81793 -7.40743,1.59859 -0.0326,-0.0634 0.63882,-1.07763 1.49191,-2.25383 z m -63.91294,-22.53507 c -9.74886,-3.95987 -19.65225,-9.5185 -28.39157,-15.93583 -17.221,-12.64547 -27.27755,-26.48185 -28.13097,-38.70414 -0.19484,-2.79029 -0.0738,-4.569 0.51087,-7.50938 0.83291,-4.18855 3.33704,-8.67955 6.81305,-12.21877 2.68116,-2.72992 6.75351,-5.75409 9.54841,-7.09071 l 0.97652,-0.46703 1.02309,1.21379 c 0.5627,0.66758 2.52122,2.93071 4.35225,5.0292 20.14034,23.08198 46.93205,41.60917 66.2305,45.80018 10.53892,2.2887 20.58878,0.98857 32.90363,-4.25671 1.49261,-0.63574 2.76813,-1.13845 2.8345,-1.11711 0.0664,0.0213 0.23271,0.76832 0.36969,1.65996 1.23834,8.06075 -2.26519,18.01764 -8.7048,24.73862 -9.47299,9.8869 -23.92324,14.97338 -39.81478,14.01475 -6.01581,-0.36287 -13.10255,-2.14382 -20.52039,-5.15682 z"
       id="path3464"
       style="fill:#040404" />
  </g>
</svg>
